<!-- icon666.com - MILLIONS vector ICONS FREE --><svg id="Layer_1" enable-background="new 0 0 512 512" viewBox="0 0 512 512" xmlns="http://www.w3.org/2000/svg"><path d="m469.528 179.188 6.005-6.005c6.581-6.582 6.581-17.292 0-23.874l-21.313-21.312c-6.583-6.583-17.292-6.583-23.874 0l-6.005 6.004c-21.686-15.244-46.784-25.942-73.904-30.697v-16.723h16.604c9.309 0 16.882-7.573 16.882-16.882v-10.376c0-9.309-7.573-16.882-16.882-16.882h-97.113c-9.309 0-16.882 7.573-16.882 16.882v10.376c0 9.309 7.573 16.882 16.882 16.882h16.604v16.724c-27.121 4.755-52.219 15.453-73.905 30.696l-6.005-6.005c-6.582-6.581-17.292-6.581-23.874 0l-21.312 21.312c-6.583 6.582-6.583 17.292 0 23.875l6.005 6.005c-21.079 29.987-33.473 66.499-33.473 105.856 0 101.742 82.773 184.515 184.515 184.515s184.517-82.773 184.517-184.515c0-39.357-12.394-75.869-33.472-105.856zm-29.282-41.292c1.124-1.123 2.952-1.123 4.075 0l21.312 21.311c1.124 1.124 1.124 2.953 0 4.076l-4.659 4.659c-7.623-9.259-16.129-17.765-25.388-25.388zm-173.199-68.197v-10.376c0-1.589 1.293-2.882 2.882-2.882h97.113c1.589 0 2.882 1.293 2.882 2.882v10.376c0 1.589-1.293 2.882-2.882 2.882h-97.113c-1.589 0-2.882-1.293-2.882-2.882zm33.486 16.882h35.904v14.823c-5.909-.573-11.896-.875-17.952-.875s-12.043.302-17.952.875zm-129.196 76.703c-1.124-1.124-1.124-2.952 0-4.076l21.312-21.312c1.124-1.124 2.953-1.124 4.076 0l4.659 4.659c-9.259 7.623-17.765 16.129-25.388 25.388zm147.148 292.275c-94.022 0-170.515-76.493-170.515-170.515s76.493-170.515 170.515-170.515 170.515 76.492 170.515 170.515-76.493 170.515-170.515 170.515zm0-315.861c-80.145 0-145.347 65.202-145.347 145.347 0 80.144 65.202 145.346 145.347 145.346s145.347-65.202 145.347-145.346c0-80.145-65.203-145.347-145.347-145.347zm0 276.693c-72.425 0-131.347-58.922-131.347-131.346 0-72.425 58.922-131.347 131.347-131.347s131.347 58.922 131.347 131.347c0 72.424-58.922 131.346-131.347 131.346zm65.167-230.219-9.917 17.176c-1.296 2.246-3.649 3.501-6.068 3.501-1.188 0-2.391-.302-3.494-.939-3.348-1.933-4.495-6.214-2.562-9.562l9.917-17.176c1.933-3.348 6.214-4.496 9.562-2.562 3.348 1.933 4.495 6.214 2.562 9.562zm13.967 53.184c-1.933-3.348-.786-7.629 2.562-9.562l17.176-9.917c3.349-1.933 7.629-.786 9.562 2.562s.786 7.629-2.562 9.562l-17.176 9.917c-1.103.637-2.306.939-3.494.939-2.418 0-4.771-1.255-6.068-3.501zm46.076 45.688c0 3.866-3.134 7-7 7h-19.834c-3.866 0-7-3.134-7-7s3.134-7 7-7h19.834c3.866 0 7 3.134 7 7zm-16.776 62.605c-1.296 2.246-3.649 3.501-6.068 3.501-1.188 0-2.391-.302-3.494-.939l-17.176-9.917c-3.348-1.933-4.495-6.214-2.562-9.562 1.934-3.349 6.214-4.496 9.562-2.562l17.176 9.917c3.349 1.933 4.496 6.214 2.562 9.562zm-43.267 36.268c1.933 3.348.786 7.629-2.562 9.562-1.102.637-2.306.939-3.494.939-2.419 0-4.772-1.255-6.068-3.501l-9.917-17.177c-1.933-3.348-.786-7.629 2.562-9.562s7.63-.786 9.562 2.562zm-58.167-.497v19.833c0 3.866-3.134 7-7 7s-7-3.134-7-7v-19.833c0-3.866 3.134-7 7-7s7 3.134 7 7zm-50.126-9.68-9.916 17.177c-1.297 2.246-3.65 3.501-6.069 3.501-1.188 0-2.391-.302-3.494-.939-3.348-1.933-4.495-6.214-2.562-9.562l9.916-17.177c1.934-3.349 6.215-4.495 9.563-2.562s4.495 6.214 2.562 9.562zm-36.008-43.008c1.933 3.348.786 7.629-2.562 9.562l-17.176 9.917c-1.103.637-2.306.939-3.494.939-2.419 0-4.772-1.255-6.068-3.501-1.933-3.348-.786-7.629 2.562-9.562l17.176-9.917c3.348-1.932 7.629-.785 9.562 2.562zm-19.242-38.688h-19.833c-3.866 0-7-3.134-7-7s3.134-7 7-7h19.833c3.866 0 7 3.134 7 7s-3.134 7-7 7zm19.242-52.688c-1.296 2.246-3.649 3.501-6.068 3.501-1.188 0-2.391-.302-3.494-.939l-17.176-9.917c-3.348-1.933-4.495-6.214-2.562-9.562 1.933-3.349 6.215-4.495 9.562-2.562l17.176 9.917c3.348 1.933 4.495 6.214 2.562 9.562zm36.008-43.008c1.933 3.348.786 7.629-2.562 9.562-1.103.637-2.306.939-3.494.939-2.419 0-4.772-1.255-6.068-3.501l-9.917-17.176c-1.933-3.348-.786-7.629 2.562-9.562 3.349-1.933 7.629-.786 9.562 2.562zm50.126 70.046v-52.666c0-3.866-3.134-7-7-7s-7 3.134-7 7v52.666c-7.548 2.844-12.942 10.119-12.942 18.65 0 10.996 8.946 19.942 19.942 19.942s19.942-8.946 19.942-19.942c0-8.53-5.394-15.806-12.942-18.65zm-7 24.593c-3.277 0-5.942-2.666-5.942-5.942s2.666-5.943 5.942-5.943 5.942 2.666 5.942 5.943-2.665 5.942-5.942 5.942zm-7-104.319v-19.834c0-3.866 3.134-7 7-7s7 3.134 7 7v19.834c0 3.866-3.134 7-7 7s-7-3.133-7-7zm-276.342 75.784c0-3.866 3.134-7 7-7h65.902c3.866 0 7 3.134 7 7s-3.134 7-7 7h-65.902c-3.866 0-7-3.134-7-7zm90.199-45.185c0 3.866-3.134 7-7 7h-57.48c-3.866 0-7-3.134-7-7s3.134-7 7-7h57.479c3.867 0 7.001 3.133 7.001 7zm-16.904 97.37h-92.438c-3.866 0-7-3.134-7-7s3.134-7 7-7h92.438c3.866 0 7 3.134 7 7s-3.133 7-7 7zm16.904 38.185c0 3.866-3.134 7-7 7h-61.318c-3.866 0-7-3.134-7-7s3.134-7 7-7h61.317c3.867 0 7.001 3.134 7.001 7z"></path></svg>